<?xml version="1.0" encoding="UTF-8" standalone="no"?>
<svg id="svg2" xmlns:rdf="http://www.w3.org/1999/02/22-rdf-syntax-ns#" xmlns="http://www.w3.org/2000/svg" height="200" viewBox="0 0 200 200" width="200" version="1.1" xmlns:dc="http://purl.org/dc/elements/1.1/">
 <path id="path4138" fill="#2f3292" d="m82.713 198.45c-41.6-7.52-74.241-40.22-81.246-81.39-7.0607-41.501 11.759-81.898 48.105-103.26 39.292-23.095 88.748-16.734 121.08 15.571 38.843 38.813 39.173 101.63 0.73903 140.42-23.577 23.798-56.558 34.454-88.676 28.652zm-19.281-32.42c1.5389-1.6992 1.6792-2.8878 0.97427-8.2548-0.45292-3.4484-0.79093-9.4296-0.75115-13.291 0.10697-10.383 6.0992-38.505 8.2046-38.505 0.454 0 1.0617 2.9404 1.3504 6.5343 0.59577 7.4163 4.0877 13.893 8.3668 15.519 3.4329 1.3042 11.367 1.2106 15.516-0.18308 5.0559-1.6984 11.957-7.2652 15.921-12.842 1.9276-2.7124 3.7799-4.9527 4.1162-4.9785 0.33634-0.0258 0.88352 2.2479 1.2159 5.0526 1.1636 9.8168 5.6985 14.285 13.816 13.613 6.1271-0.50756 10.203-3.5723 13.275-9.9813 2.8526-5.9519 4.4585-16.103 2.7174-17.178-0.61056-0.37707-1.3846 0.13053-1.7229 1.1298-3.2019 9.4581-7.5199 13.503-14.614 13.688-7.5386 0.19752-12.737-9.2204-9.4517-17.122 0.85911-2.0662 2.9838-7.1338 4.7215-11.261 8.0699-19.168 10.865-31.714 7.7562-34.82-1.8336-1.8322-8.2579-1.4797-10.03 0.55032-2.879 3.2981-3.7832 6.1252-6.7806 21.202-4.0387 20.314-8.9455 30.109-18.882 37.69-3.6515 2.786-5.3237 3.3947-9.3266 3.3947-4.1585 0-5.4288-0.50522-8.6178-3.4275-3.5848-3.285-3.7375-3.6906-3.6719-9.7557 0.05557-5.1379 0.92647-8.3985 4.6304-17.335 2.5091-6.0535 5.3402-13.399 6.2914-16.322 2.0814-6.3978 2.4896-14.629 0.80904-16.311-1.8421-1.8438-6.9951-1.4618-9.4211 0.69837-3.6294 3.2316-4.9661 8.07-7.4218 26.863-1.9897 15.227-3.2399 20.844-7.9211 35.59-10.351 32.608-12.783 45.924-9.1244 49.963 2.3655 2.6119 5.7335 2.6462 8.0558 0.082z"/>
</svg>
