<?xml version="1.0" encoding="UTF-8" standalone="no"?>
<!-- Generator: Adobe Illustrator 18.1.1, SVG Export Plug-In . SVG Version: 6.00 Build 0)  -->

<svg
   version="1.1"
   id="Layer_1"
   x="0px"
   y="0px"
   viewBox="0 0 299.89999 103.2"
   enable-background="new 0 0 960 560"
   xml:space="preserve"
   inkscape:version="1.2.2 (b0a8486541, 2022-12-01)"
   sodipodi:docname="micro-logo.svg"
   width="299.89999"
   height="103.2"
   xmlns:inkscape="http://www.inkscape.org/namespaces/inkscape"
   xmlns:sodipodi="http://sodipodi.sourceforge.net/DTD/sodipodi-0.dtd"
   xmlns="http://www.w3.org/2000/svg"
   xmlns:svg="http://www.w3.org/2000/svg"
   xmlns:rdf="http://www.w3.org/1999/02/22-rdf-syntax-ns#"
   xmlns:cc="http://creativecommons.org/ns#"
   xmlns:dc="http://purl.org/dc/elements/1.1/"><metadata
     id="metadata21"><rdf:RDF><cc:Work
         rdf:about=""><dc:format>image/svg+xml</dc:format><dc:type
           rdf:resource="http://purl.org/dc/dcmitype/StillImage" /><dc:title /></cc:Work></rdf:RDF></metadata><defs
     id="defs19" /><sodipodi:namedview
     pagecolor="#ffffff"
     bordercolor="#666666"
     borderopacity="1"
     objecttolerance="10"
     gridtolerance="10"
     guidetolerance="10"
     inkscape:pageopacity="0"
     inkscape:pageshadow="2"
     inkscape:window-width="1920"
     inkscape:window-height="1080"
     id="namedview17"
     showgrid="false"
     fit-margin-top="0"
     fit-margin-left="0"
     fit-margin-right="0"
     fit-margin-bottom="0"
     inkscape:zoom="16.645603"
     inkscape:cx="65.092264"
     inkscape:cy="49.051992"
     inkscape:window-x="0"
     inkscape:window-y="0"
     inkscape:window-maximized="0"
     inkscape:current-layer="Layer_1"
     inkscape:showpageshadow="2"
     inkscape:pagecheckerboard="0"
     inkscape:deskcolor="#d1d1d1" /><g
     id="g3"
     transform="translate(-178,-172.8)"><path
       d="m 306.8,213.8 0,-2.6 c 1.6,-0.1 2.9,-0.4 4.1,-0.8 1.2,-0.4 2.5,-1 4,-1.8 l 2.3,0 0,5.2 c 2.4,-1.9 4.2,-3.1 5.5,-3.8 2,-1 4,-1.5 5.8,-1.5 1.3,0 2.5,0.2 3.7,0.7 1.2,0.5 2.2,1 2.9,1.7 0.7,0.7 1.4,1.6 1.9,2.8 2.2,-1.9 4.2,-3.3 6,-4 1.9,-0.8 3.7,-1.2 5.6,-1.2 1.8,0 3.4,0.4 4.8,1.1 1.4,0.8 2.4,1.7 3,2.8 0.6,1.1 0.9,2.8 0.9,5 l 0,14.4 c 0,1.5 0,2.4 0.1,2.6 0.1,0.4 0.3,0.8 0.7,1.1 0.3,0.4 0.7,0.6 1.2,0.7 0.4,0.1 1.2,0.2 2.4,0.2 l 1,0 0,2.6 -15.5,0 0,-2.6 c 1.8,0 2.9,-0.1 3.5,-0.4 0.5,-0.2 0.9,-0.6 1.2,-1.2 0.3,-0.6 0.4,-1.6 0.4,-3.2 l 0,-13.7 c 0,-1.7 -0.2,-2.9 -0.5,-3.6 -0.3,-0.7 -0.9,-1.2 -1.7,-1.7 -0.8,-0.4 -1.8,-0.7 -3,-0.7 -1.5,0 -3,0.4 -4.6,1.2 -2.2,1.1 -3.9,2.3 -5.1,3.6 l 0,14.8 c 0,1.4 0.1,2.4 0.2,2.8 0.1,0.4 0.4,0.8 0.7,1.1 0.3,0.3 0.7,0.5 1.1,0.6 0.4,0.1 1.5,0.2 3.1,0.2 l 0,2.6 -15.3,0 0,-2.6 0.9,0 c 1.2,0 2.1,-0.1 2.6,-0.4 0.5,-0.3 0.9,-0.7 1.2,-1.3 0.2,-0.5 0.3,-1.5 0.3,-2.9 l 0,-13.2 c 0,-1.9 -0.2,-3.3 -0.5,-3.9 -0.3,-0.7 -0.9,-1.3 -1.7,-1.7 -0.8,-0.5 -1.8,-0.7 -3,-0.7 -1.3,0 -2.7,0.3 -4.1,1 -2,1 -3.9,2.2 -5.6,3.8 l 0,15.9 c 0,1 0.1,1.6 0.4,2.1 0.3,0.4 0.7,0.8 1.2,1.1 0.6,0.3 1.3,0.4 2.3,0.4 l 1.1,0 0,2.6 -15.6,0 0,-2.6 0.8,0 c 1.4,0 2.4,-0.1 2.8,-0.3 0.7,-0.3 1.1,-0.8 1.4,-1.5 0.2,-0.4 0.2,-1.3 0.2,-2.9 l 0,-18.1 -5.1,0 z"
       id="path5"
       inkscape:connector-curvature="0" /><path
       d="m 366.4,213.7 0,-2.6 c 1.7,-0.2 3.2,-0.5 4.3,-0.9 1.2,-0.4 2.5,-1 4,-1.7 l 2.3,0 0,24.9 c 0,0.9 0.1,1.5 0.4,2 0.2,0.4 0.6,0.8 1,0.9 0.4,0.2 1.3,0.3 2.4,0.3 l 1.5,0 0,2.6 -15.9,0 0,-2.6 1.3,0 c 1.4,0 2.3,-0.1 2.8,-0.4 0.5,-0.2 0.8,-0.6 1,-1.1 0.2,-0.5 0.3,-1.5 0.3,-3.2 l 0,-18.3 -5.4,0 z m 7.9,-19.2 c 1,0 1.8,0.3 2.5,1 0.7,0.7 1.1,1.5 1.1,2.5 0,1 -0.4,1.8 -1.1,2.5 -0.7,0.7 -1.6,1.1 -2.5,1.1 -1,0 -1.8,-0.4 -2.5,-1.1 -0.7,-0.7 -1.1,-1.6 -1.1,-2.5 0,-1 0.4,-1.8 1.1,-2.5 0.6,-0.6 1.5,-1 2.5,-1 z"
       id="path7"
       inkscape:connector-curvature="0" /><path
       d="m 413.1,230.6 2,1.6 c -3.9,5.2 -8.6,7.8 -14,7.8 -4.2,0 -7.8,-1.5 -10.7,-4.5 -2.9,-3 -4.4,-6.8 -4.4,-11.3 0,-3 0.7,-5.7 2,-8.1 1.3,-2.4 3.2,-4.2 5.6,-5.6 2.4,-1.3 5.2,-2 8.3,-2 3.6,0 6.5,0.9 8.9,2.6 2.4,1.7 3.6,3.5 3.6,5.3 0,1 -0.3,1.7 -0.8,2.2 -0.5,0.5 -1.2,0.8 -1.9,0.8 -0.4,0 -0.7,-0.1 -1.1,-0.3 -0.4,-0.2 -0.7,-0.5 -1.1,-0.9 -0.2,-0.2 -0.5,-0.8 -0.9,-1.7 -0.6,-1.2 -1,-2 -1.3,-2.4 -0.6,-0.8 -1.4,-1.5 -2.4,-2 -0.9,-0.5 -2,-0.7 -3.1,-0.7 -1.8,0 -3.4,0.5 -4.9,1.5 -1.5,1 -2.7,2.4 -3.6,4.3 -0.9,1.9 -1.3,4.2 -1.3,6.8 0,4.1 1.1,7.3 3.3,9.7 1.9,2.1 4.1,3.1 6.7,3.1 1.2,0 2.4,-0.2 3.6,-0.6 1.2,-0.4 2.4,-1 3.5,-1.8 0.9,-0.6 2.2,-1.8 4,-3.8 z"
       id="path9"
       inkscape:connector-curvature="0" /><path
       d="m 418.7,213.7 0,-2.6 c 1.5,-0.1 2.8,-0.4 4,-0.8 1.2,-0.4 2.5,-1 4,-1.9 l 2.3,0 0,5.9 c 1.5,-1.8 3.2,-3.2 5.1,-4.3 1.9,-1.1 3.7,-1.6 5.2,-1.6 1.5,0 2.7,0.4 3.6,1.1 0.9,0.7 1.3,1.6 1.3,2.6 0,0.7 -0.3,1.4 -0.9,2 -0.6,0.6 -1.3,0.9 -2.1,0.9 -0.4,0 -0.7,-0.1 -1,-0.2 -0.3,-0.1 -0.7,-0.3 -1.2,-0.7 -1.1,-0.7 -2.1,-1.1 -2.9,-1.1 -1,0 -2.2,0.4 -3.4,1.3 -1.6,1.1 -2.8,2.2 -3.7,3.3 l 0,14.4 c 0,1.2 0.1,2.1 0.2,2.5 0.1,0.4 0.4,0.8 0.7,1.1 0.3,0.3 0.7,0.6 1.1,0.7 0.5,0.1 1.3,0.2 2.4,0.2 l 1,0 0,2.6 -16,0 0,-2.6 1.3,0 c 1.3,0 2.1,-0.1 2.5,-0.3 0.5,-0.3 0.9,-0.7 1.2,-1.3 0.3,-0.5 0.4,-1.5 0.4,-3 l 0,-18.3 -5.1,0 z"
       id="path11"
       inkscape:connector-curvature="0" /><path
       d="m 462.8,208.5 c 3,0 5.7,0.6 7.9,1.9 2.2,1.3 4,3.1 5.3,5.5 1.3,2.4 1.9,5.2 1.9,8.3 0,3.1 -0.7,5.9 -2,8.3 -1.3,2.4 -3.1,4.3 -5.4,5.5 -2.3,1.3 -5,1.9 -8.1,1.9 -5,0 -8.8,-1.6 -11.3,-4.7 -2.5,-3.1 -3.8,-6.8 -3.8,-11 0,-3.1 0.7,-5.8 2,-8.2 1.3,-2.4 3.1,-4.2 5.5,-5.6 2.4,-1.2 5.1,-1.9 8,-1.9 z m -0.2,3 c -2.4,0 -4.4,0.9 -6,2.8 -2.1,2.3 -3.1,5.7 -3.1,10.1 0,4.3 0.9,7.5 2.6,9.7 1.6,2 3.8,3 6.5,3 1.8,0 3.3,-0.5 4.7,-1.4 1.4,-0.9 2.5,-2.4 3.3,-4.5 0.8,-2 1.3,-4.4 1.3,-7.2 0,-2.7 -0.5,-5.1 -1.4,-7.2 -0.7,-1.7 -1.8,-3 -3.2,-4 -1.3,-0.8 -2.9,-1.3 -4.7,-1.3 z"
       id="path13"
       inkscape:connector-curvature="0" /></g><path
     d="M 51.6,0 C 23.1,0 0,23.1 0,51.6 c 0,28.5 23.1,51.6 51.6,51.6 28.5,0 51.6,-23.1 51.6,-51.6 C 103.2,23.1 80.1,0 51.6,0 Z m 24.5,58.6 c -0.5,2 -1.3,3.6 -2.4,4.9 -1,1.3 -2,2.1 -3.1,2.5 -1.1,0.4 -2.2,0.6 -3.4,0.6 -1.2,0 -2.2,-0.2 -3,-0.7 C 63.4,65.5 62.8,64.8 62.3,64 61.8,63.2 61.5,62.2 61.3,61.1 61.1,60 61,58.8 61,57.5 c 0,-0.5 0,-1 0.1,-1.7 0.1,-0.7 0.2,-1.6 0.3,-1.6 l -0.2,0 c -1.6,4 -3.8,6.9 -6.6,9.2 -2.8,2.3 -5.9,3.4 -9.3,3.4 -2.3,0 -4.2,-0.9 -5.5,-2.6 -1.4,-1.7 -2.1,-4.3 -2.1,-7.7 0,-0.5 0,-1 0.1,-1.6 0.1,-0.5 0.1,-0.7 0.2,-1.7 l -0.7,0 c -0.9,2 -1.7,4.8 -2.3,7.3 -0.6,2.5 -1.1,4.8 -1.4,6.9 -0.4,2.1 -0.6,4 -0.8,5.6 -0.2,1.6 -0.3,2.7 -0.4,3.3 0.1,0.5 0.2,1 0.3,1.6 0.2,0.6 0.3,1.2 0.5,1.7 0.2,0.5 0.3,1.1 0.4,1.6 0.1,0.5 0.2,0.9 0.2,1.2 0,1.4 -0.3,2.5 -0.9,3.2 -0.6,0.7 -1.3,1.1 -2,1.1 -0.9,0 -1.7,-0.3 -2.3,-0.8 -0.7,-0.6 -1,-1.5 -1,-2.7 0,-1.7 0.3,-3.9 0.9,-6.5 0.6,-2.6 1.5,-5.9 2.6,-9.8 0.6,-1.8 1.1,-3.6 1.7,-5.4 0.6,-1.8 1.1,-3.5 1.6,-5 0.5,-1.5 0.9,-2.9 1.3,-4.1 0.4,-1.2 0.6,-2.1 0.7,-2.8 0.1,-0.3 0.2,-1 0.3,-2 0.1,-1 0.2,-2.1 0.4,-3.4 0.2,-1.3 0.3,-2.7 0.5,-4.1 0.2,-1.5 0.4,-2.8 0.5,-4 0.2,-0.9 0.3,-1.9 0.5,-3 0.2,-1.1 0.5,-2.2 0.9,-3.1 0.4,-1 1,-1.8 1.7,-2.5 0.7,-0.7 1.6,-1 2.7,-1 1.2,0 2,0.4 2.4,1.1 0.4,0.7 0.6,1.6 0.5,2.6 -0.1,1 -0.2,2.1 -0.5,3.2 -0.3,1.1 -0.6,2.1 -0.9,2.9 -0.8,2.5 -1.6,4.8 -2.5,6.7 -0.9,1.9 -1.7,4 -2.4,6.2 -0.6,1.5 -0.8,2.9 -0.8,4.1 0,2.2 0.7,3.8 2,5 1.4,1.2 3,1.7 4.9,1.7 1.5,0 3,-0.5 4.4,-1.6 1.4,-1.1 2.7,-2.4 3.9,-3.9 1.2,-1.5 2.2,-3.1 3,-4.9 0.8,-1.7 1.4,-3.3 1.8,-4.6 0.1,-0.2 0.2,-0.6 0.3,-1.4 0.2,-0.8 0.3,-1.7 0.5,-2.7 0.2,-1 0.4,-2 0.6,-3.1 0.2,-1.1 0.4,-2 0.5,-2.7 0.2,-0.8 0.3,-1.6 0.5,-2.6 0.2,-1 0.5,-1.9 0.9,-2.8 0.4,-0.9 1,-1.6 1.6,-2.2 0.7,-0.6 1.5,-0.9 2.6,-0.9 1.3,0 2.1,0.4 2.6,1.1 0.4,0.7 0.6,1.6 0.6,2.6 -0.1,1 -0.2,2 -0.5,3 -0.3,1 -0.5,1.8 -0.7,2.4 -0.8,2.5 -1.6,4.7 -2.4,6.7 -0.8,2 -1.5,3.8 -2.2,5.2 -0.6,1.5 -1.1,2.6 -1.5,3.5 -0.4,0.9 -0.6,1.5 -0.6,1.8 0,2.6 0.6,4.5 1.7,5.6 1.1,1.1 2.3,1.7 3.6,1.7 2.2,0 3.9,-0.7 5.2,-2 1.3,-1.4 2.3,-3.9 2.9,-6.9 l 0.8,0 c 0.2,2.9 -0.1,5.3 -0.6,7.3 z"
     id="path15"
     inkscape:connector-curvature="0"
     style="fill:#2e3192" /><path
     style="fill:#ffffff;stroke-width:0.0600759"
     d="m 30.192709,86.597991 c -0.530828,-0.09608 -1.19875,-0.411872 -1.578921,-0.746511 -0.792953,-0.697985 -1.054327,-1.680313 -0.947823,-3.562219 0.16271,-2.875042 0.852662,-6.034057 2.963728,-13.569713 0.66017,-2.356543 0.955814,-3.307037 3.762987,-12.097989 1.219825,-3.820007 1.435496,-4.505244 1.616654,-5.136492 0.306236,-1.067081 0.590331,-2.663175 0.753866,-4.235353 0.08592,-0.826044 0.236455,-2.096649 0.334514,-2.823568 0.09806,-0.726919 0.246246,-1.916422 0.329306,-2.643341 0.08306,-0.726918 0.231698,-1.902905 0.330307,-2.613302 0.09861,-0.710398 0.231242,-1.724179 0.294741,-2.252848 0.19473,-1.621264 0.604712,-4.037809 0.845956,-4.986301 0.495326,-1.947452 1.158621,-3.216325 2.26111,-4.325467 0.731983,-0.736399 1.547763,-1.051329 2.723316,-1.051329 1.344787,0 2.103359,0.409522 2.539237,1.370828 0.373167,0.823003 0.432731,1.702332 0.227502,3.358553 -0.206897,1.669687 -0.429401,2.498899 -1.62432,6.053417 -0.891865,2.653022 -1.418886,4.025585 -2.237847,5.828196 -0.890733,1.960586 -1.401439,3.281416 -2.291175,5.925621 -0.696894,2.071095 -0.858755,3.003396 -0.79649,4.587665 0.05016,1.276299 0.270881,2.168068 0.761945,3.078469 1.114561,2.066325 3.341124,3.259541 6.082361,3.259541 0.831865,0 1.52957,-0.113832 2.245267,-0.366322 1.037155,-0.365895 1.69838,-0.767468 2.829986,-1.718697 2.058613,-1.730473 4.031033,-4.098263 5.356083,-6.429706 1.132231,-1.992175 2.742129,-5.986041 2.978686,-7.389579 0.126006,-0.747618 0.37151,-2.073261 0.753923,-4.070941 0.459374,-2.399719 0.965049,-5.073707 1.26106,-6.668427 0.439666,-2.368642 0.948255,-3.731056 1.831386,-4.905927 1.000947,-1.33161 1.919678,-1.818989 3.424905,-1.816884 1.371199,0.0019 2.259901,0.453797 2.692584,1.369104 0.199937,0.42295 0.37898,1.160518 0.431897,1.779189 0.0423,0.494585 -0.08313,1.707742 -0.270194,2.613303 -0.520247,2.51845 -2.995194,9.527499 -4.836622,13.697311 -0.189691,0.429543 -0.709117,1.619046 -1.154281,2.64334 -0.445164,1.024295 -0.903857,2.078627 -1.019317,2.342962 -0.593057,1.357747 -0.644155,1.607255 -0.563046,2.7493 0.142046,2.000035 0.604952,3.420811 1.436759,4.409774 0.719848,0.85585 1.902762,1.62255 2.859809,1.853569 0.533147,0.128695 1.669602,0.128252 2.472607,-9.67e-4 1.437635,-0.231339 2.769133,-0.900566 3.72751,-1.873493 1.098243,-1.114915 2.227996,-3.662559 2.785802,-6.282105 l 0.13752,-0.645816 h 0.37414 0.37414 l 0.04419,0.94284 c 0.124949,2.666054 -0.382363,6.016009 -1.237138,8.16926 -0.848692,2.137927 -2.617365,4.354096 -4.156972,5.208738 -1.58257,0.878493 -4.420415,1.19721 -6.111929,0.68643 -0.649563,-0.196146 -1.47209,-0.685817 -1.961392,-1.167665 -1.354216,-1.333585 -1.999054,-3.254244 -2.18916,-6.52045 -0.03525,-0.60571 -0.04689,-1.38515 -0.02584,-1.732089 0.04435,-0.731258 0.257009,-2.357205 0.335205,-2.562875 0.04613,-0.121335 0.03516,-0.140427 -0.08025,-0.139702 -0.11259,7.09e-4 -0.171074,0.09313 -0.370649,0.58574 -0.571777,1.411317 -1.625409,3.288777 -2.58713,4.609988 -2.555402,3.510606 -5.935984,6.014779 -9.311242,6.897323 -1.386313,0.362485 -1.927076,0.42829 -3.514441,0.427668 -1.398071,-5.41e-4 -1.500695,-0.0084 -2.047014,-0.157216 -1.248806,-0.340101 -2.244463,-0.904197 -3.05944,-1.733346 -1.343156,-1.366511 -2.129105,-3.116872 -2.494126,-5.554581 -0.150028,-1.001927 -0.191427,-3.616227 -0.06949,-4.388291 0.05195,-0.328906 0.113311,-0.84947 0.136367,-1.156809 l 0.04192,-0.558799 -0.380315,0.01812 -0.380315,0.01812 -0.231805,0.570721 c -1.478913,3.641182 -3.072314,10.383891 -3.918324,16.580955 -0.190557,1.395837 -0.701916,5.676121 -0.706953,5.917479 -0.0093,0.446744 0.454257,2.427922 0.818884,3.499628 0.121802,0.358001 0.382754,1.549663 0.538684,2.459961 0.04595,0.268246 -0.06655,1.468043 -0.178759,1.906478 -0.165253,0.645686 -0.477741,1.20884 -0.915337,1.649588 -0.463951,0.467293 -0.819805,0.689321 -1.309045,0.816755 -0.410787,0.106995 -0.564727,0.106887 -1.159735,-7.81e-4 z"
     id="path240" /></svg>
