<?xml version="1.0" encoding="UTF-8" standalone="no"?>
<svg version="1.1" width="300" height="103" viewBox="0 0 300 103" xmlns="http://www.w3.org/2000/svg">
	<circle fill="#2e3192" cx="51.5" cy="51.5" r="51.5"/>
	<path id="micro-symbol" fill="#fff" d="m 76.1,58.6 c -0.78,2.32 -2.6,8.08 -8.9,8 -4.26,-0.06 -5.47,-3.14 -5.9,-5.5 -0.67,-3.67 -0.02,-6.9 0.1,-6.9 H 61.2 C 59.15,60.17 52.82,67.09 45.3,66.8 37.91,66.51 37.18,58.64 38,53.2 h -0.7 c -2.57,6.89 -3.89,14.24 -4.9,23.1 0.35,2.27 1.4,4.91 1.4,6.1 0,1.4 -0.3,2.5 -0.9,3.2 -1.83,2.16 -5.38,0.97 -5.3,-2.4 0.11,-4.42 1.84,-10.12 3.5,-16.3 0.1,-0.32 4.25,-13.44 4.6,-14.5 0.4,-1.2 0.6,-2.1 0.7,-2.8 0.18,-0.54 0.94,-7.68 1.2,-9.5 0.29,-2.34 0.62,-4.67 1,-7 0.66,-3.61 1.92,-4.92 2.6,-5.6 1.4,-1.4 4.27,-1.34 5.1,0.1 1,1.75 0.24,4.91 0,5.8 -0.28,1.03 -1.92,6.48 -3.4,9.6 -0.31,0.66 -3.2,6.85 -3.2,10.3 0,4.62 3.28,6.7 6.9,6.7 3.6,-0.11 6.14,-2.91 8.3,-5.5 1.2,-1.5 2.2,-3.1 3,-4.9 0.8,-1.7 1.4,-3.3 1.8,-4.6 0.21,-0.42 0.53,-2.73 0.8,-4.1 0.36,-1.8 1.03,-5.28 1.1,-5.8 0.32,-1.85 0.8,-3.85 1.4,-5.4 1.34,-3.48 5.54,-3.88 6.8,-2 1.16,1.73 0.35,4.75 0.1,5.6 -0.3,1 -0.5,1.8 -0.7,2.4 -0.8,2.5 -1.6,4.7 -2.4,6.7 -0.8,2 -1.5,3.8 -2.2,5.2 -0.66,1.78 -1.64,3.45 -2.1,5.3 0,7.11 4.78,7.3 5.3,7.3 4.3,0 6.81,-2.46 8.1,-8.9 h 0.8 c 0.2,2.9 0.06,5.35 -0.6,7.3 z"/>
	<g id="text" transform="translate(-180,-172.8)">
		<path id="m" d="m 306.8,213.8 0,-2.6 c 1.6,-0.1 2.9,-0.4 4.1,-0.8 1.2,-0.4 2.5,-1 4,-1.8 l 2.3,0 0,5.2 c 2.4,-1.9 4.2,-3.1 5.5,-3.8 2,-1 4,-1.5 5.8,-1.5 1.3,0 2.5,0.2 3.7,0.7 1.2,0.5 2.2,1 2.9,1.7 0.7,0.7 1.4,1.6 1.9,2.8 2.2,-1.9 4.2,-3.3 6,-4 1.9,-0.8 3.7,-1.2 5.6,-1.2 1.8,0 3.4,0.4 4.8,1.1 1.4,0.8 2.4,1.7 3,2.8 0.6,1.1 0.9,2.8 0.9,5 l 0,14.4 c 0,1.5 0,2.4 0.1,2.6 0.1,0.4 0.3,0.8 0.7,1.1 0.3,0.4 0.7,0.6 1.2,0.7 0.4,0.1 1.2,0.2 2.4,0.2 l 1,0 0,2.6 -15.5,0 0,-2.6 c 1.8,0 2.9,-0.1 3.5,-0.4 0.5,-0.2 0.9,-0.6 1.2,-1.2 0.3,-0.6 0.4,-1.6 0.4,-3.2 l 0,-13.7 c 0,-1.7 -0.2,-2.9 -0.5,-3.6 -0.3,-0.7 -0.9,-1.2 -1.7,-1.7 -0.8,-0.4 -1.8,-0.7 -3,-0.7 -1.5,0 -3,0.4 -4.6,1.2 -2.2,1.1 -3.9,2.3 -5.1,3.6 l 0,14.8 c 0,1.4 0.1,2.4 0.2,2.8 0.1,0.4 0.4,0.8 0.7,1.1 0.3,0.3 0.7,0.5 1.1,0.6 0.4,0.1 1.5,0.2 3.1,0.2 l 0,2.6 -15.3,0 0,-2.6 0.9,0 c 1.2,0 2.1,-0.1 2.6,-0.4 0.5,-0.3 0.9,-0.7 1.2,-1.3 0.2,-0.5 0.3,-1.5 0.3,-2.9 l 0,-13.2 c 0,-1.9 -0.2,-3.3 -0.5,-3.9 -0.3,-0.7 -0.9,-1.3 -1.7,-1.7 -0.8,-0.5 -1.8,-0.7 -3,-0.7 -1.3,0 -2.7,0.3 -4.1,1 -2,1 -3.9,2.2 -5.6,3.8 l 0,15.9 c 0,1 0.1,1.6 0.4,2.1 0.3,0.4 0.7,0.8 1.2,1.1 0.6,0.3 1.3,0.4 2.3,0.4 l 1.1,0 0,2.6 -15.6,0 0,-2.6 0.8,0 c 1.4,0 2.4,-0.1 2.8,-0.3 0.7,-0.3 1.1,-0.8 1.4,-1.5 0.2,-0.4 0.2,-1.3 0.2,-2.9 l 0,-18.1 -5.1,0 z"/>
		<path id="i" d="m 366.4,213.7 0,-2.6 c 1.7,-0.2 3.2,-0.5 4.3,-0.9 1.2,-0.4 2.5,-1 4,-1.7 l 2.3,0 0,24.9 c 0,0.9 0.1,1.5 0.4,2 0.2,0.4 0.6,0.8 1,0.9 0.4,0.2 1.3,0.3 2.4,0.3 l 1.5,0 0,2.6 -15.9,0 0,-2.6 1.3,0 c 1.4,0 2.3,-0.1 2.8,-0.4 0.5,-0.2 0.8,-0.6 1,-1.1 0.2,-0.5 0.3,-1.5 0.3,-3.2 l 0,-18.3 -5.4,0 z m 7.9,-19.2 c 1,0 1.8,0.3 2.5,1 0.7,0.7 1.1,1.5 1.1,2.5 0,1 -0.4,1.8 -1.1,2.5 -0.7,0.7 -1.6,1.1 -2.5,1.1 -1,0 -1.8,-0.4 -2.5,-1.1 -0.7,-0.7 -1.1,-1.6 -1.1,-2.5 0,-1 0.4,-1.8 1.1,-2.5 0.6,-0.6 1.5,-1 2.5,-1 z"/>
		<path id="c" d="m 413.1,230.6 2,1.6 c -3.9,5.2 -8.6,7.8 -14,7.8 -4.2,0 -7.8,-1.5 -10.7,-4.5 -2.9,-3 -4.4,-6.8 -4.4,-11.3 0,-3 0.7,-5.7 2,-8.1 1.3,-2.4 3.2,-4.2 5.6,-5.6 2.4,-1.3 5.2,-2 8.3,-2 3.6,0 6.5,0.9 8.9,2.6 2.4,1.7 3.6,3.5 3.6,5.3 0,1 -0.3,1.7 -0.8,2.2 -0.5,0.5 -1.2,0.8 -1.9,0.8 -0.4,0 -0.7,-0.1 -1.1,-0.3 -0.4,-0.2 -0.7,-0.5 -1.1,-0.9 -0.2,-0.2 -0.5,-0.8 -0.9,-1.7 -0.6,-1.2 -1,-2 -1.3,-2.4 -0.6,-0.8 -1.4,-1.5 -2.4,-2 -0.9,-0.5 -2,-0.7 -3.1,-0.7 -1.8,0 -3.4,0.5 -4.9,1.5 -1.5,1 -2.7,2.4 -3.6,4.3 -0.9,1.9 -1.3,4.2 -1.3,6.8 0,4.1 1.1,7.3 3.3,9.7 1.9,2.1 4.1,3.1 6.7,3.1 1.2,0 2.4,-0.2 3.6,-0.6 1.2,-0.4 2.4,-1 3.5,-1.8 0.9,-0.6 2.2,-1.8 4,-3.8 z"/>
		<path id="r" d="m 418.7,213.7 0,-2.6 c 1.5,-0.1 2.8,-0.4 4,-0.8 1.2,-0.4 2.5,-1 4,-1.9 l 2.3,0 0,5.9 c 1.5,-1.8 3.2,-3.2 5.1,-4.3 1.9,-1.1 3.7,-1.6 5.2,-1.6 1.5,0 2.7,0.4 3.6,1.1 0.9,0.7 1.3,1.6 1.3,2.6 0,0.7 -0.3,1.4 -0.9,2 -0.6,0.6 -1.3,0.9 -2.1,0.9 -0.4,0 -0.7,-0.1 -1,-0.2 -0.3,-0.1 -0.7,-0.3 -1.2,-0.7 -1.1,-0.7 -2.1,-1.1 -2.9,-1.1 -1,0 -2.2,0.4 -3.4,1.3 -1.6,1.1 -2.8,2.2 -3.7,3.3 l 0,14.4 c 0,1.2 0.1,2.1 0.2,2.5 0.1,0.4 0.4,0.8 0.7,1.1 0.3,0.3 0.7,0.6 1.1,0.7 0.5,0.1 1.3,0.2 2.4,0.2 l 1,0 0,2.6 -16,0 0,-2.6 1.3,0 c 1.3,0 2.1,-0.1 2.5,-0.3 0.5,-0.3 0.9,-0.7 1.2,-1.3 0.3,-0.5 0.4,-1.5 0.4,-3 l 0,-18.3 -5.1,0 z"/>
		<path id="o" d="m 462.8,208.5 c 3,0 5.7,0.6 7.9,1.9 2.2,1.3 4,3.1 5.3,5.5 1.3,2.4 1.9,5.2 1.9,8.3 0,3.1 -0.7,5.9 -2,8.3 -1.3,2.4 -3.1,4.3 -5.4,5.5 -2.3,1.3 -5,1.9 -8.1,1.9 -5,0 -8.8,-1.6 -11.3,-4.7 -2.5,-3.1 -3.8,-6.8 -3.8,-11 0,-3.1 0.7,-5.8 2,-8.2 1.3,-2.4 3.1,-4.2 5.5,-5.6 2.4,-1.2 5.1,-1.9 8,-1.9 z m -0.2,3 c -2.4,0 -4.4,0.9 -6,2.8 -2.1,2.3 -3.1,5.7 -3.1,10.1 0,4.3 0.9,7.5 2.6,9.7 1.6,2 3.8,3 6.5,3 1.8,0 3.3,-0.5 4.7,-1.4 1.4,-0.9 2.5,-2.4 3.3,-4.5 0.8,-2 1.3,-4.4 1.3,-7.2 0,-2.7 -0.5,-5.1 -1.4,-7.2 -0.7,-1.7 -1.8,-3 -3.2,-4 -1.3,-0.8 -2.9,-1.3 -4.7,-1.3 z"/>
	</g>
</svg>
