<?xml version="1.0" encoding="UTF-8" standalone="no"?>
<!-- Generator: Adobe Illustrator 18.1.1, SVG Export Plug-In . SVG Version: 6.00 Build 0)  -->

<svg
   version="1.1"
   id="Layer_1"
   x="0px"
   y="0px"
   viewBox="0 0 304.70001 103.2"
   enable-background="new 0 0 960 560"
   xml:space="preserve"
   inkscape:version="1.2.2 (b0a8486541, 2022-12-01)"
   sodipodi:docname="micro-logo-drop.svg"
   width="304.70001"
   height="103.2"
   xmlns:inkscape="http://www.inkscape.org/namespaces/inkscape"
   xmlns:sodipodi="http://sodipodi.sourceforge.net/DTD/sodipodi-0.dtd"
   xmlns="http://www.w3.org/2000/svg"
   xmlns:svg="http://www.w3.org/2000/svg"
   xmlns:rdf="http://www.w3.org/1999/02/22-rdf-syntax-ns#"
   xmlns:cc="http://creativecommons.org/ns#"
   xmlns:dc="http://purl.org/dc/elements/1.1/"><metadata
     id="metadata21"><rdf:RDF><cc:Work
         rdf:about=""><dc:format>image/svg+xml</dc:format><dc:type
           rdf:resource="http://purl.org/dc/dcmitype/StillImage" /></cc:Work></rdf:RDF></metadata><defs
     id="defs19"><filter
       style="color-interpolation-filters:sRGB"
       inkscape:label="Blur"
       id="filter1040"
       x="-0.028037383"
       y="-0.10549451"
       width="1.0560748"
       height="1.210989"><feGaussianBlur
         stdDeviation="2 2"
         result="blur"
         id="feGaussianBlur1038" /></filter></defs><sodipodi:namedview
     pagecolor="#ffffff"
     bordercolor="#666666"
     borderopacity="1"
     objecttolerance="10"
     gridtolerance="10"
     guidetolerance="10"
     inkscape:pageopacity="0"
     inkscape:pageshadow="2"
     inkscape:window-width="1920"
     inkscape:window-height="1080"
     id="namedview17"
     showgrid="false"
     fit-margin-top="0"
     fit-margin-left="0"
     fit-margin-right="0"
     fit-margin-bottom="0"
     inkscape:zoom="13.204388"
     inkscape:cx="71.832181"
     inkscape:cy="63.956011"
     inkscape:window-x="0"
     inkscape:window-y="0"
     inkscape:window-maximized="1"
     inkscape:current-layer="Layer_1"
     inkscape:pagecheckerboard="0"
     inkscape:showpageshadow="2"
     inkscape:deskcolor="#d1d1d1" /><g
     id="g838"
     transform="translate(-178,-172.8)"
     style="fill:#ffffff;fill-opacity:1;filter:url(#filter1040)"><path
       d="m 306.8,213.8 v -2.6 c 1.6,-0.1 2.9,-0.4 4.1,-0.8 1.2,-0.4 2.5,-1 4,-1.8 h 2.3 v 5.2 c 2.4,-1.9 4.2,-3.1 5.5,-3.8 2,-1 4,-1.5 5.8,-1.5 1.3,0 2.5,0.2 3.7,0.7 1.2,0.5 2.2,1 2.9,1.7 0.7,0.7 1.4,1.6 1.9,2.8 2.2,-1.9 4.2,-3.3 6,-4 1.9,-0.8 3.7,-1.2 5.6,-1.2 1.8,0 3.4,0.4 4.8,1.1 1.4,0.8 2.4,1.7 3,2.8 0.6,1.1 0.9,2.8 0.9,5 v 14.4 c 0,1.5 0,2.4 0.1,2.6 0.1,0.4 0.3,0.8 0.7,1.1 0.3,0.4 0.7,0.6 1.2,0.7 0.4,0.1 1.2,0.2 2.4,0.2 h 1 v 2.6 h -15.5 v -2.6 c 1.8,0 2.9,-0.1 3.5,-0.4 0.5,-0.2 0.9,-0.6 1.2,-1.2 0.3,-0.6 0.4,-1.6 0.4,-3.2 v -13.7 c 0,-1.7 -0.2,-2.9 -0.5,-3.6 -0.3,-0.7 -0.9,-1.2 -1.7,-1.7 -0.8,-0.4 -1.8,-0.7 -3,-0.7 -1.5,0 -3,0.4 -4.6,1.2 -2.2,1.1 -3.9,2.3 -5.1,3.6 v 14.8 c 0,1.4 0.1,2.4 0.2,2.8 0.1,0.4 0.4,0.8 0.7,1.1 0.3,0.3 0.7,0.5 1.1,0.6 0.4,0.1 1.5,0.2 3.1,0.2 v 2.6 h -15.3 v -2.6 h 0.9 c 1.2,0 2.1,-0.1 2.6,-0.4 0.5,-0.3 0.9,-0.7 1.2,-1.3 0.2,-0.5 0.3,-1.5 0.3,-2.9 v -13.2 c 0,-1.9 -0.2,-3.3 -0.5,-3.9 -0.3,-0.7 -0.9,-1.3 -1.7,-1.7 -0.8,-0.5 -1.8,-0.7 -3,-0.7 -1.3,0 -2.7,0.3 -4.1,1 -2,1 -3.9,2.2 -5.6,3.8 v 15.9 c 0,1 0.1,1.6 0.4,2.1 0.3,0.4 0.7,0.8 1.2,1.1 0.6,0.3 1.3,0.4 2.3,0.4 h 1.1 v 2.6 h -15.6 v -2.6 h 0.8 c 1.4,0 2.4,-0.1 2.8,-0.3 0.7,-0.3 1.1,-0.8 1.4,-1.5 0.2,-0.4 0.2,-1.3 0.2,-2.9 v -18.1 h -5.1 z"
       id="path828"
       inkscape:connector-curvature="0"
       style="fill:#ffffff;fill-opacity:1" /><path
       d="m 366.4,213.7 v -2.6 c 1.7,-0.2 3.2,-0.5 4.3,-0.9 1.2,-0.4 2.5,-1 4,-1.7 h 2.3 v 24.9 c 0,0.9 0.1,1.5 0.4,2 0.2,0.4 0.6,0.8 1,0.9 0.4,0.2 1.3,0.3 2.4,0.3 h 1.5 v 2.6 h -15.9 v -2.6 h 1.3 c 1.4,0 2.3,-0.1 2.8,-0.4 0.5,-0.2 0.8,-0.6 1,-1.1 0.2,-0.5 0.3,-1.5 0.3,-3.2 v -18.3 h -5.4 z m 7.9,-19.2 c 1,0 1.8,0.3 2.5,1 0.7,0.7 1.1,1.5 1.1,2.5 0,1 -0.4,1.8 -1.1,2.5 -0.7,0.7 -1.6,1.1 -2.5,1.1 -1,0 -1.8,-0.4 -2.5,-1.1 -0.7,-0.7 -1.1,-1.6 -1.1,-2.5 0,-1 0.4,-1.8 1.1,-2.5 0.6,-0.6 1.5,-1 2.5,-1 z"
       id="path830"
       inkscape:connector-curvature="0"
       style="fill:#ffffff;fill-opacity:1" /><path
       d="m 413.1,230.6 2,1.6 c -3.9,5.2 -8.6,7.8 -14,7.8 -4.2,0 -7.8,-1.5 -10.7,-4.5 -2.9,-3 -4.4,-6.8 -4.4,-11.3 0,-3 0.7,-5.7 2,-8.1 1.3,-2.4 3.2,-4.2 5.6,-5.6 2.4,-1.3 5.2,-2 8.3,-2 3.6,0 6.5,0.9 8.9,2.6 2.4,1.7 3.6,3.5 3.6,5.3 0,1 -0.3,1.7 -0.8,2.2 -0.5,0.5 -1.2,0.8 -1.9,0.8 -0.4,0 -0.7,-0.1 -1.1,-0.3 -0.4,-0.2 -0.7,-0.5 -1.1,-0.9 -0.2,-0.2 -0.5,-0.8 -0.9,-1.7 -0.6,-1.2 -1,-2 -1.3,-2.4 -0.6,-0.8 -1.4,-1.5 -2.4,-2 -0.9,-0.5 -2,-0.7 -3.1,-0.7 -1.8,0 -3.4,0.5 -4.9,1.5 -1.5,1 -2.7,2.4 -3.6,4.3 -0.9,1.9 -1.3,4.2 -1.3,6.8 0,4.1 1.1,7.3 3.3,9.7 1.9,2.1 4.1,3.1 6.7,3.1 1.2,0 2.4,-0.2 3.6,-0.6 1.2,-0.4 2.4,-1 3.5,-1.8 0.9,-0.6 2.2,-1.8 4,-3.8 z"
       id="path832"
       inkscape:connector-curvature="0"
       style="fill:#ffffff;fill-opacity:1" /><path
       d="m 418.7,213.7 v -2.6 c 1.5,-0.1 2.8,-0.4 4,-0.8 1.2,-0.4 2.5,-1 4,-1.9 h 2.3 v 5.9 c 1.5,-1.8 3.2,-3.2 5.1,-4.3 1.9,-1.1 3.7,-1.6 5.2,-1.6 1.5,0 2.7,0.4 3.6,1.1 0.9,0.7 1.3,1.6 1.3,2.6 0,0.7 -0.3,1.4 -0.9,2 -0.6,0.6 -1.3,0.9 -2.1,0.9 -0.4,0 -0.7,-0.1 -1,-0.2 -0.3,-0.1 -0.7,-0.3 -1.2,-0.7 -1.1,-0.7 -2.1,-1.1 -2.9,-1.1 -1,0 -2.2,0.4 -3.4,1.3 -1.6,1.1 -2.8,2.2 -3.7,3.3 V 232 c 0,1.2 0.1,2.1 0.2,2.5 0.1,0.4 0.4,0.8 0.7,1.1 0.3,0.3 0.7,0.6 1.1,0.7 0.5,0.1 1.3,0.2 2.4,0.2 h 1 v 2.6 h -16 v -2.6 h 1.3 c 1.3,0 2.1,-0.1 2.5,-0.3 0.5,-0.3 0.9,-0.7 1.2,-1.3 0.3,-0.5 0.4,-1.5 0.4,-3 v -18.3 h -5.1 z"
       id="path834"
       inkscape:connector-curvature="0"
       style="fill:#ffffff;fill-opacity:1" /><path
       d="m 462.8,208.5 c 3,0 5.7,0.6 7.9,1.9 2.2,1.3 4,3.1 5.3,5.5 1.3,2.4 1.9,5.2 1.9,8.3 0,3.1 -0.7,5.9 -2,8.3 -1.3,2.4 -3.1,4.3 -5.4,5.5 -2.3,1.3 -5,1.9 -8.1,1.9 -5,0 -8.8,-1.6 -11.3,-4.7 -2.5,-3.1 -3.8,-6.8 -3.8,-11 0,-3.1 0.7,-5.8 2,-8.2 1.3,-2.4 3.1,-4.2 5.5,-5.6 2.4,-1.2 5.1,-1.9 8,-1.9 z m -0.2,3 c -2.4,0 -4.4,0.9 -6,2.8 -2.1,2.3 -3.1,5.7 -3.1,10.1 0,4.3 0.9,7.5 2.6,9.7 1.6,2 3.8,3 6.5,3 1.8,0 3.3,-0.5 4.7,-1.4 1.4,-0.9 2.5,-2.4 3.3,-4.5 0.8,-2 1.3,-4.4 1.3,-7.2 0,-2.7 -0.5,-5.1 -1.4,-7.2 -0.7,-1.7 -1.8,-3 -3.2,-4 -1.3,-0.8 -2.9,-1.3 -4.7,-1.3 z"
       id="path836"
       inkscape:connector-curvature="0"
       style="fill:#ffffff;fill-opacity:1" /></g><g
     id="g3"
     transform="translate(-178,-172.8)"><path
       d="m 306.8,213.8 v -2.6 c 1.6,-0.1 2.9,-0.4 4.1,-0.8 1.2,-0.4 2.5,-1 4,-1.8 h 2.3 v 5.2 c 2.4,-1.9 4.2,-3.1 5.5,-3.8 2,-1 4,-1.5 5.8,-1.5 1.3,0 2.5,0.2 3.7,0.7 1.2,0.5 2.2,1 2.9,1.7 0.7,0.7 1.4,1.6 1.9,2.8 2.2,-1.9 4.2,-3.3 6,-4 1.9,-0.8 3.7,-1.2 5.6,-1.2 1.8,0 3.4,0.4 4.8,1.1 1.4,0.8 2.4,1.7 3,2.8 0.6,1.1 0.9,2.8 0.9,5 v 14.4 c 0,1.5 0,2.4 0.1,2.6 0.1,0.4 0.3,0.8 0.7,1.1 0.3,0.4 0.7,0.6 1.2,0.7 0.4,0.1 1.2,0.2 2.4,0.2 h 1 v 2.6 h -15.5 v -2.6 c 1.8,0 2.9,-0.1 3.5,-0.4 0.5,-0.2 0.9,-0.6 1.2,-1.2 0.3,-0.6 0.4,-1.6 0.4,-3.2 v -13.7 c 0,-1.7 -0.2,-2.9 -0.5,-3.6 -0.3,-0.7 -0.9,-1.2 -1.7,-1.7 -0.8,-0.4 -1.8,-0.7 -3,-0.7 -1.5,0 -3,0.4 -4.6,1.2 -2.2,1.1 -3.9,2.3 -5.1,3.6 v 14.8 c 0,1.4 0.1,2.4 0.2,2.8 0.1,0.4 0.4,0.8 0.7,1.1 0.3,0.3 0.7,0.5 1.1,0.6 0.4,0.1 1.5,0.2 3.1,0.2 v 2.6 h -15.3 v -2.6 h 0.9 c 1.2,0 2.1,-0.1 2.6,-0.4 0.5,-0.3 0.9,-0.7 1.2,-1.3 0.2,-0.5 0.3,-1.5 0.3,-2.9 v -13.2 c 0,-1.9 -0.2,-3.3 -0.5,-3.9 -0.3,-0.7 -0.9,-1.3 -1.7,-1.7 -0.8,-0.5 -1.8,-0.7 -3,-0.7 -1.3,0 -2.7,0.3 -4.1,1 -2,1 -3.9,2.2 -5.6,3.8 v 15.9 c 0,1 0.1,1.6 0.4,2.1 0.3,0.4 0.7,0.8 1.2,1.1 0.6,0.3 1.3,0.4 2.3,0.4 h 1.1 v 2.6 h -15.6 v -2.6 h 0.8 c 1.4,0 2.4,-0.1 2.8,-0.3 0.7,-0.3 1.1,-0.8 1.4,-1.5 0.2,-0.4 0.2,-1.3 0.2,-2.9 v -18.1 h -5.1 z"
       id="path5"
       inkscape:connector-curvature="0" /><path
       d="m 366.4,213.7 v -2.6 c 1.7,-0.2 3.2,-0.5 4.3,-0.9 1.2,-0.4 2.5,-1 4,-1.7 h 2.3 v 24.9 c 0,0.9 0.1,1.5 0.4,2 0.2,0.4 0.6,0.8 1,0.9 0.4,0.2 1.3,0.3 2.4,0.3 h 1.5 v 2.6 h -15.9 v -2.6 h 1.3 c 1.4,0 2.3,-0.1 2.8,-0.4 0.5,-0.2 0.8,-0.6 1,-1.1 0.2,-0.5 0.3,-1.5 0.3,-3.2 v -18.3 h -5.4 z m 7.9,-19.2 c 1,0 1.8,0.3 2.5,1 0.7,0.7 1.1,1.5 1.1,2.5 0,1 -0.4,1.8 -1.1,2.5 -0.7,0.7 -1.6,1.1 -2.5,1.1 -1,0 -1.8,-0.4 -2.5,-1.1 -0.7,-0.7 -1.1,-1.6 -1.1,-2.5 0,-1 0.4,-1.8 1.1,-2.5 0.6,-0.6 1.5,-1 2.5,-1 z"
       id="path7"
       inkscape:connector-curvature="0" /><path
       d="m 413.1,230.6 2,1.6 c -3.9,5.2 -8.6,7.8 -14,7.8 -4.2,0 -7.8,-1.5 -10.7,-4.5 -2.9,-3 -4.4,-6.8 -4.4,-11.3 0,-3 0.7,-5.7 2,-8.1 1.3,-2.4 3.2,-4.2 5.6,-5.6 2.4,-1.3 5.2,-2 8.3,-2 3.6,0 6.5,0.9 8.9,2.6 2.4,1.7 3.6,3.5 3.6,5.3 0,1 -0.3,1.7 -0.8,2.2 -0.5,0.5 -1.2,0.8 -1.9,0.8 -0.4,0 -0.7,-0.1 -1.1,-0.3 -0.4,-0.2 -0.7,-0.5 -1.1,-0.9 -0.2,-0.2 -0.5,-0.8 -0.9,-1.7 -0.6,-1.2 -1,-2 -1.3,-2.4 -0.6,-0.8 -1.4,-1.5 -2.4,-2 -0.9,-0.5 -2,-0.7 -3.1,-0.7 -1.8,0 -3.4,0.5 -4.9,1.5 -1.5,1 -2.7,2.4 -3.6,4.3 -0.9,1.9 -1.3,4.2 -1.3,6.8 0,4.1 1.1,7.3 3.3,9.7 1.9,2.1 4.1,3.1 6.7,3.1 1.2,0 2.4,-0.2 3.6,-0.6 1.2,-0.4 2.4,-1 3.5,-1.8 0.9,-0.6 2.2,-1.8 4,-3.8 z"
       id="path9"
       inkscape:connector-curvature="0" /><path
       d="m 418.7,213.7 v -2.6 c 1.5,-0.1 2.8,-0.4 4,-0.8 1.2,-0.4 2.5,-1 4,-1.9 h 2.3 v 5.9 c 1.5,-1.8 3.2,-3.2 5.1,-4.3 1.9,-1.1 3.7,-1.6 5.2,-1.6 1.5,0 2.7,0.4 3.6,1.1 0.9,0.7 1.3,1.6 1.3,2.6 0,0.7 -0.3,1.4 -0.9,2 -0.6,0.6 -1.3,0.9 -2.1,0.9 -0.4,0 -0.7,-0.1 -1,-0.2 -0.3,-0.1 -0.7,-0.3 -1.2,-0.7 -1.1,-0.7 -2.1,-1.1 -2.9,-1.1 -1,0 -2.2,0.4 -3.4,1.3 -1.6,1.1 -2.8,2.2 -3.7,3.3 V 232 c 0,1.2 0.1,2.1 0.2,2.5 0.1,0.4 0.4,0.8 0.7,1.1 0.3,0.3 0.7,0.6 1.1,0.7 0.5,0.1 1.3,0.2 2.4,0.2 h 1 v 2.6 h -16 v -2.6 h 1.3 c 1.3,0 2.1,-0.1 2.5,-0.3 0.5,-0.3 0.9,-0.7 1.2,-1.3 0.3,-0.5 0.4,-1.5 0.4,-3 v -18.3 h -5.1 z"
       id="path11"
       inkscape:connector-curvature="0" /><path
       d="m 462.8,208.5 c 3,0 5.7,0.6 7.9,1.9 2.2,1.3 4,3.1 5.3,5.5 1.3,2.4 1.9,5.2 1.9,8.3 0,3.1 -0.7,5.9 -2,8.3 -1.3,2.4 -3.1,4.3 -5.4,5.5 -2.3,1.3 -5,1.9 -8.1,1.9 -5,0 -8.8,-1.6 -11.3,-4.7 -2.5,-3.1 -3.8,-6.8 -3.8,-11 0,-3.1 0.7,-5.8 2,-8.2 1.3,-2.4 3.1,-4.2 5.5,-5.6 2.4,-1.2 5.1,-1.9 8,-1.9 z m -0.2,3 c -2.4,0 -4.4,0.9 -6,2.8 -2.1,2.3 -3.1,5.7 -3.1,10.1 0,4.3 0.9,7.5 2.6,9.7 1.6,2 3.8,3 6.5,3 1.8,0 3.3,-0.5 4.7,-1.4 1.4,-0.9 2.5,-2.4 3.3,-4.5 0.8,-2 1.3,-4.4 1.3,-7.2 0,-2.7 -0.5,-5.1 -1.4,-7.2 -0.7,-1.7 -1.8,-3 -3.2,-4 -1.3,-0.8 -2.9,-1.3 -4.7,-1.3 z"
       id="path13"
       inkscape:connector-curvature="0" /></g><path
     d="M 51.6,0 C 23.1,0 0,23.1 0,51.6 c 0,28.5 23.1,51.6 51.6,51.6 28.5,0 51.6,-23.1 51.6,-51.6 C 103.2,23.1 80.1,0 51.6,0 Z m 24.5,58.6 c -0.5,2 -1.3,3.6 -2.4,4.9 -1,1.3 -2,2.1 -3.1,2.5 -1.1,0.4 -2.2,0.6 -3.4,0.6 -1.2,0 -2.2,-0.2 -3,-0.7 C 63.4,65.5 62.8,64.8 62.3,64 61.8,63.2 61.5,62.2 61.3,61.1 61.1,60 61,58.8 61,57.5 c 0,-0.5 0,-1 0.1,-1.7 0.1,-0.7 0.2,-1.6 0.3,-1.6 h -0.2 c -1.6,4 -3.8,6.9 -6.6,9.2 -2.8,2.3 -5.9,3.4 -9.3,3.4 -2.3,0 -4.2,-0.9 -5.5,-2.6 -1.4,-1.7 -2.1,-4.3 -2.1,-7.7 0,-0.5 0,-1 0.1,-1.6 0.1,-0.5 0.1,-0.7 0.2,-1.7 h -0.7 c -0.9,2 -1.7,4.8 -2.3,7.3 -0.6,2.5 -1.1,4.8 -1.4,6.9 -0.4,2.1 -0.6,4 -0.8,5.6 -0.2,1.6 -0.3,2.7 -0.4,3.3 0.1,0.5 0.2,1 0.3,1.6 0.2,0.6 0.3,1.2 0.5,1.7 0.2,0.5 0.3,1.1 0.4,1.6 0.1,0.5 0.2,0.9 0.2,1.2 0,1.4 -0.3,2.5 -0.9,3.2 -0.6,0.7 -1.3,1.1 -2,1.1 -0.9,0 -1.7,-0.3 -2.3,-0.8 -0.7,-0.6 -1,-1.5 -1,-2.7 0,-1.7 0.3,-3.9 0.9,-6.5 0.6,-2.6 1.5,-5.9 2.6,-9.8 0.6,-1.8 1.1,-3.6 1.7,-5.4 0.6,-1.8 1.1,-3.5 1.6,-5 0.5,-1.5 0.9,-2.9 1.3,-4.1 0.4,-1.2 0.6,-2.1 0.7,-2.8 0.1,-0.3 0.2,-1 0.3,-2 0.1,-1 0.2,-2.1 0.4,-3.4 0.2,-1.3 0.3,-2.7 0.5,-4.1 0.2,-1.5 0.4,-2.8 0.5,-4 0.2,-0.9 0.3,-1.9 0.5,-3 0.2,-1.1 0.5,-2.2 0.9,-3.1 0.4,-1 1,-1.8 1.7,-2.5 0.7,-0.7 1.6,-1 2.7,-1 1.2,0 2,0.4 2.4,1.1 0.4,0.7 0.6,1.6 0.5,2.6 -0.1,1 -0.2,2.1 -0.5,3.2 -0.3,1.1 -0.6,2.1 -0.9,2.9 -0.8,2.5 -1.6,4.8 -2.5,6.7 -0.9,1.9 -1.7,4 -2.4,6.2 -0.6,1.5 -0.8,2.9 -0.8,4.1 0,2.2 0.7,3.8 2,5 1.4,1.2 3,1.7 4.9,1.7 1.5,0 3,-0.5 4.4,-1.6 1.4,-1.1 2.7,-2.4 3.9,-3.9 1.2,-1.5 2.2,-3.1 3,-4.9 0.8,-1.7 1.4,-3.3 1.8,-4.6 0.1,-0.2 0.2,-0.6 0.3,-1.4 0.2,-0.8 0.3,-1.7 0.5,-2.7 0.2,-1 0.4,-2 0.6,-3.1 0.2,-1.1 0.4,-2 0.5,-2.7 0.2,-0.8 0.3,-1.6 0.5,-2.6 0.2,-1 0.5,-1.9 0.9,-2.8 0.4,-0.9 1,-1.6 1.6,-2.2 0.7,-0.6 1.5,-0.9 2.6,-0.9 1.3,0 2.1,0.4 2.6,1.1 0.4,0.7 0.6,1.6 0.6,2.6 -0.1,1 -0.2,2 -0.5,3 -0.3,1 -0.5,1.8 -0.7,2.4 -0.8,2.5 -1.6,4.7 -2.4,6.7 -0.8,2 -1.5,3.8 -2.2,5.2 -0.6,1.5 -1.1,2.6 -1.5,3.5 -0.4,0.9 -0.6,1.5 -0.6,1.8 0,2.6 0.6,4.5 1.7,5.6 1.1,1.1 2.3,1.7 3.6,1.7 2.2,0 3.9,-0.7 5.2,-2 1.3,-1.4 2.3,-3.9 2.9,-6.9 h 0.8 c 0.2,2.9 -0.1,5.3 -0.6,7.3 z"
     id="path15"
     inkscape:connector-curvature="0"
     style="fill:#2e3192" /><path
     style="fill:#ffffff;stroke-width:0.0757324"
     d="m 30.026506,86.559353 c -1.017302,-0.241662 -1.787869,-0.887419 -2.143612,-1.796406 -0.545654,-1.394246 -0.158934,-4.812615 1.126179,-9.954732 1.255925,-5.025324 2.459082,-9.096362 5.109736,-17.289458 0.344312,-1.064257 1.654133,-5.2136 1.888607,-5.982859 0.296596,-0.97307 0.598551,-2.708021 0.79743,-4.581811 0.108312,-1.020494 0.246431,-2.186451 0.306932,-2.591018 0.0605,-0.404565 0.178758,-1.341754 0.262796,-2.082641 0.224837,-1.982189 0.649291,-5.218012 0.916787,-6.98913 0.444542,-2.943359 0.753682,-4.198397 1.354756,-5.499991 0.686842,-1.487323 1.771061,-2.655188 2.805126,-3.021538 0.542395,-0.19216 1.381388,-0.270583 1.982594,-0.185316 1.252526,0.17764 1.883508,0.754167 2.211742,2.020866 0.313761,1.21084 -0.05565,3.930951 -0.877141,6.458782 -1.290698,3.971623 -2.036395,5.990995 -2.986916,8.088674 -1.185138,2.61545 -2.712212,6.873258 -2.939609,8.196258 -0.49042,2.853282 0.04972,5.146283 1.578225,6.6999 0.913915,0.928929 2.023939,1.521458 3.413442,1.82209 0.903748,0.195534 2.608483,0.179674 3.407958,-0.03171 1.383427,-0.365777 2.763884,-1.250325 4.377299,-2.804821 3.163126,-3.047616 5.113532,-6.222841 6.797438,-11.066108 0.353971,-1.018094 0.493359,-1.574562 0.749316,-2.991429 0.271014,-1.500218 1.040858,-5.574621 1.51657,-8.026458 0.08082,-0.416528 0.218253,-1.149239 0.305416,-1.628246 0.472088,-2.594388 1.148516,-4.178722 2.330295,-5.458032 0.763841,-0.826879 1.674493,-1.206419 2.894632,-1.206419 1.24359,0 2.138991,0.401576 2.574266,1.154526 0.974305,1.685378 0.683954,4.053139 -1.163626,9.489195 -0.954432,2.808181 -2.572717,6.998752 -3.493593,9.046702 -0.971745,2.161077 -2.201912,5.041664 -2.441809,5.717796 l -0.268706,0.757324 0.09021,1.120423 c 0.212423,2.638199 0.889316,4.086035 2.469149,5.281365 0.932959,0.705895 1.786459,0.982601 3.026274,0.981126 2.426542,-0.0029 4.480731,-1.028876 5.685658,-2.839769 0.811784,-1.220036 1.58443,-3.158397 2.044887,-5.130071 l 0.207813,-0.889855 h 0.356374 0.356373 l 0.04799,0.892492 c 0.0554,1.030319 -0.04881,3.015268 -0.219241,4.175846 -0.345822,2.354993 -1.040859,4.427262 -1.983165,5.91286 -0.701565,1.106055 -1.958204,2.491062 -2.717404,2.994989 -1.555814,1.032691 -4.187858,1.499135 -6.161832,1.091984 -0.603718,-0.124523 -1.72865,-0.689523 -2.178956,-1.094387 -1.477985,-1.328835 -2.187139,-3.341642 -2.360358,-6.699454 -0.08196,-1.588814 0.0522,-3.504923 0.298559,-4.263967 0.05681,-0.175039 0.04587,-0.208265 -0.06857,-0.208265 -0.09667,0 -0.197671,0.148268 -0.348229,0.511194 -0.711765,1.715746 -1.965261,3.867832 -3.142896,5.395934 -0.680786,0.883388 -2.612844,2.822501 -3.483678,3.496397 -2.517073,1.947843 -5.073167,2.951502 -8.060525,3.164993 -1.592379,0.1138 -2.868371,-0.07567 -4.016971,-0.596469 -1.69649,-0.769225 -3.109446,-2.469115 -3.819014,-4.594555 -0.614034,-1.839276 -0.863382,-4.754214 -0.580679,-6.788275 0.05951,-0.428202 0.126068,-0.957467 0.147897,-1.176145 l 0.03969,-0.397595 H 37.651633 37.254872 L 36.96284,53.90253 c -0.705326,1.783387 -1.458627,4.293583 -2.085205,6.948448 -1.027173,4.352223 -1.56307,7.486558 -2.197428,12.852248 -0.310323,2.624858 -0.310577,2.629265 -0.189513,3.294359 0.13956,0.766706 0.417018,1.85334 0.68249,2.672894 0.306093,0.944956 0.565598,2.296449 0.565598,2.945615 0,1.819491 -0.751236,3.258298 -2.006909,3.84374 -0.402074,0.187462 -1.15114,0.231172 -1.705369,0.09951 z"
     id="path218" /></svg>
